<svg width="97" height="20" viewBox="0 0 97 20" fill="none" xmlns="http://www.w3.org/2000/svg">
<path d="M32.269 5.77C32.4337 5.77 32.5593 5.822 32.646 5.926C32.7413 6.02133 32.789 6.15133 32.789 6.316V14.545C32.789 14.701 32.7457 14.8267 32.659 14.922C32.5723 15.0173 32.451 15.065 32.295 15.065C32.139 15.065 32.022 15.0173 31.944 14.922C31.866 14.8267 31.827 14.701 31.827 14.545V7.902L29.006 13.31C28.8847 13.5613 28.707 13.687 28.473 13.687C28.2477 13.687 28.07 13.5613 27.94 13.31L25.106 7.967V14.545C25.106 14.701 25.0627 14.8267 24.976 14.922C24.898 15.0173 24.781 15.065 24.625 15.065C24.469 15.065 24.3477 15.0173 24.261 14.922C24.1743 14.8267 24.131 14.701 24.131 14.545V6.316C24.131 6.15133 24.1787 6.02133 24.274 5.926C24.3693 5.822 24.4993 5.77 24.664 5.77C24.8807 5.77 25.054 5.89567 25.184 6.147L28.486 12.478L31.749 6.147C31.8183 6.00833 31.892 5.913 31.97 5.861C32.0567 5.80033 32.1563 5.77 32.269 5.77ZM35.4387 15.065C35.2827 15.065 35.1527 15.0217 35.0487 14.935C34.9533 14.8397 34.9057 14.7097 34.9057 14.545V9.059C34.9057 8.89433 34.9533 8.76867 35.0487 8.682C35.1527 8.58667 35.2827 8.539 35.4387 8.539C35.5947 8.539 35.7203 8.58667 35.8157 8.682C35.911 8.76867 35.9587 8.89433 35.9587 9.059V14.545C35.9587 14.7183 35.911 14.8483 35.8157 14.935C35.7203 15.0217 35.5947 15.065 35.4387 15.065ZM35.4387 7.174C35.2307 7.174 35.0617 7.11333 34.9317 6.992C34.8017 6.87067 34.7367 6.71033 34.7367 6.511C34.7367 6.32033 34.8017 6.16433 34.9317 6.043C35.0617 5.92167 35.2307 5.861 35.4387 5.861C35.6467 5.861 35.8157 5.92167 35.9457 6.043C36.0757 6.16433 36.1407 6.32033 36.1407 6.511C36.1407 6.71033 36.0757 6.87067 35.9457 6.992C35.8157 7.11333 35.6467 7.174 35.4387 7.174ZM41.1121 8.513C42.6288 8.513 43.3871 9.34933 43.3871 11.022V14.545C43.3871 14.7097 43.3395 14.8397 43.2441 14.935C43.1575 15.0217 43.0318 15.065 42.8671 15.065C42.7025 15.065 42.5725 15.0217 42.4771 14.935C42.3818 14.8397 42.3341 14.7097 42.3341 14.545V11.087C42.3341 10.4977 42.2171 10.0687 41.9831 9.8C41.7578 9.53133 41.3938 9.397 40.8911 9.397C40.3105 9.397 39.8468 9.57467 39.5001 9.93C39.1535 10.2853 38.9801 10.7663 38.9801 11.373V14.545C38.9801 14.7097 38.9325 14.8397 38.8371 14.935C38.7505 15.0217 38.6248 15.065 38.4601 15.065C38.2955 15.065 38.1655 15.0217 38.0701 14.935C37.9748 14.8397 37.9271 14.7097 37.9271 14.545V9.059C37.9271 8.903 37.9748 8.77733 38.0701 8.682C38.1655 8.58667 38.2955 8.539 38.4601 8.539C38.6161 8.539 38.7375 8.58667 38.8241 8.682C38.9195 8.77733 38.9671 8.89867 38.9671 9.046V9.709C39.1751 9.319 39.4655 9.02433 39.8381 8.825C40.2108 8.617 40.6355 8.513 41.1121 8.513ZM48.5138 8.513C49.2592 8.513 49.8225 8.72533 50.2038 9.15C50.5852 9.566 50.7758 10.19 50.7758 11.022V14.545C50.7758 14.7097 50.7282 14.8397 50.6328 14.935C50.5375 15.0217 50.4118 15.065 50.2558 15.065C50.0912 15.065 49.9612 15.0217 49.8658 14.935C49.7705 14.8397 49.7228 14.7097 49.7228 14.545V11.048C49.7228 10.4847 49.6058 10.0687 49.3718 9.8C49.1465 9.53133 48.7825 9.397 48.2798 9.397C47.6992 9.397 47.2355 9.57467 46.8888 9.93C46.5422 10.2853 46.3688 10.7663 46.3688 11.373V14.545C46.3688 14.7097 46.3212 14.8397 46.2258 14.935C46.1392 15.0217 46.0135 15.065 45.8488 15.065C45.6842 15.065 45.5542 15.0217 45.4588 14.935C45.3635 14.8397 45.3158 14.7097 45.3158 14.545V6.277C45.3158 6.12967 45.3635 6.00833 45.4588 5.913C45.5628 5.81767 45.6928 5.77 45.8488 5.77C46.0135 5.77 46.1392 5.81767 46.2258 5.913C46.3212 5.99967 46.3688 6.121 46.3688 6.277V9.683C46.5768 9.30167 46.8672 9.01133 47.2398 8.812C47.6125 8.61267 48.0372 8.513 48.5138 8.513ZM55.2915 8.513C56.8775 8.513 57.6705 9.345 57.6705 11.009V14.545C57.6705 14.701 57.6228 14.8267 57.5275 14.922C57.4408 15.0173 57.3195 15.065 57.1635 15.065C57.0075 15.065 56.8818 15.0173 56.7865 14.922C56.6912 14.8267 56.6435 14.701 56.6435 14.545V13.921C56.4788 14.2937 56.2275 14.584 55.8895 14.792C55.5515 14.9913 55.1615 15.091 54.7195 15.091C54.3122 15.091 53.9352 15.0087 53.5885 14.844C53.2505 14.6793 52.9818 14.4497 52.7825 14.155C52.5832 13.8603 52.4835 13.5353 52.4835 13.18C52.4835 12.7033 52.6048 12.335 52.8475 12.075C53.0902 11.8063 53.4888 11.6157 54.0435 11.503C54.5982 11.3817 55.3695 11.321 56.3575 11.321H56.6435V10.892C56.6435 10.372 56.5352 9.99067 56.3185 9.748C56.1105 9.50533 55.7682 9.384 55.2915 9.384C54.7022 9.384 54.1042 9.54433 53.4975 9.865C53.2635 10.0123 53.0988 10.086 53.0035 10.086C52.8995 10.086 52.8128 10.047 52.7435 9.969C52.6742 9.891 52.6395 9.79133 52.6395 9.67C52.6395 9.54867 52.6742 9.44467 52.7435 9.358C52.8215 9.26267 52.9428 9.16733 53.1075 9.072C53.4108 8.89867 53.7532 8.76433 54.1345 8.669C54.5245 8.565 54.9102 8.513 55.2915 8.513ZM54.8625 14.259C55.3825 14.259 55.8072 14.0857 56.1365 13.739C56.4745 13.3837 56.6435 12.9287 56.6435 12.374V11.997H56.4095C55.6468 11.997 55.0662 12.0317 54.6675 12.101C54.2688 12.1617 53.9828 12.27 53.8095 12.426C53.6448 12.5733 53.5625 12.7943 53.5625 13.089C53.5625 13.427 53.6838 13.7087 53.9265 13.934C54.1778 14.1507 54.4898 14.259 54.8625 14.259ZM66.9926 15.104C66.1259 15.104 65.3763 14.9177 64.7436 14.545C64.1109 14.1637 63.6213 13.622 63.2746 12.92C62.9366 12.2093 62.7676 11.373 62.7676 10.411C62.7676 9.45767 62.9366 8.63 63.2746 7.928C63.6213 7.21733 64.1109 6.67567 64.7436 6.303C65.3763 5.92167 66.1259 5.731 66.9926 5.731C67.5733 5.731 68.1193 5.82633 68.6306 6.017C69.1506 6.199 69.6013 6.46333 69.9826 6.81C70.1213 6.94 70.1906 7.09167 70.1906 7.265C70.1906 7.38633 70.1559 7.49467 70.0866 7.59C70.0173 7.67667 69.9349 7.72 69.8396 7.72C69.7356 7.72 69.6099 7.67233 69.4626 7.577C69.0206 7.23033 68.6176 6.98767 68.2536 6.849C67.8983 6.71033 67.4866 6.641 67.0186 6.641C66.0133 6.641 65.2376 6.97033 64.6916 7.629C64.1543 8.279 63.8856 9.20633 63.8856 10.411C63.8856 11.6243 64.1543 12.5603 64.6916 13.219C65.2376 13.869 66.0133 14.194 67.0186 14.194C67.4779 14.194 67.8896 14.1247 68.2536 13.986C68.6176 13.8473 69.0206 13.6047 69.4626 13.258C69.6099 13.1627 69.7356 13.115 69.8396 13.115C69.9349 13.115 70.0173 13.1583 70.0866 13.245C70.1559 13.3317 70.1906 13.44 70.1906 13.57C70.1906 13.7433 70.1213 13.895 69.9826 14.025C69.6013 14.3717 69.1506 14.6403 68.6306 14.831C68.1193 15.013 67.5733 15.104 66.9926 15.104ZM74.2465 15.091C73.6485 15.091 73.1198 14.9567 72.6605 14.688C72.2098 14.4193 71.8588 14.038 71.6075 13.544C71.3648 13.0413 71.2435 12.4607 71.2435 11.802C71.2435 11.1433 71.3648 10.567 71.6075 10.073C71.8588 9.57033 72.2098 9.18467 72.6605 8.916C73.1198 8.64733 73.6485 8.513 74.2465 8.513C74.8445 8.513 75.3732 8.64733 75.8325 8.916C76.2918 9.18467 76.6428 9.57033 76.8855 10.073C77.1368 10.567 77.2625 11.1433 77.2625 11.802C77.2625 12.4607 77.1368 13.0413 76.8855 13.544C76.6428 14.038 76.2918 14.4193 75.8325 14.688C75.3732 14.9567 74.8445 15.091 74.2465 15.091ZM74.2465 14.22C74.8705 14.22 75.3472 14.0163 75.6765 13.609C76.0145 13.193 76.1835 12.5907 76.1835 11.802C76.1835 11.0307 76.0145 10.437 75.6765 10.021C75.3385 9.59633 74.8618 9.384 74.2465 9.384C73.6312 9.384 73.1545 9.59633 72.8165 10.021C72.4785 10.437 72.3095 11.0307 72.3095 11.802C72.3095 12.582 72.4742 13.18 72.8035 13.596C73.1415 14.012 73.6225 14.22 74.2465 14.22ZM82.0164 8.513C83.5331 8.513 84.2914 9.34933 84.2914 11.022V14.545C84.2914 14.7097 84.2438 14.8397 84.1484 14.935C84.0618 15.0217 83.9361 15.065 83.7714 15.065C83.6068 15.065 83.4768 15.0217 83.3814 14.935C83.2861 14.8397 83.2384 14.7097 83.2384 14.545V11.087C83.2384 10.4977 83.1214 10.0687 82.8874 9.8C82.6621 9.53133 82.2981 9.397 81.7954 9.397C81.2148 9.397 80.7511 9.57467 80.4044 9.93C80.0578 10.2853 79.8844 10.7663 79.8844 11.373V14.545C79.8844 14.7097 79.8368 14.8397 79.7414 14.935C79.6548 15.0217 79.5291 15.065 79.3644 15.065C79.1998 15.065 79.0698 15.0217 78.9744 14.935C78.8791 14.8397 78.8314 14.7097 78.8314 14.545V9.059C78.8314 8.903 78.8791 8.77733 78.9744 8.682C79.0698 8.58667 79.1998 8.539 79.3644 8.539C79.5204 8.539 79.6418 8.58667 79.7284 8.682C79.8238 8.77733 79.8714 8.89867 79.8714 9.046V9.709C80.0794 9.319 80.3698 9.02433 80.7424 8.825C81.1151 8.617 81.5398 8.513 82.0164 8.513ZM89.1451 14.233C89.4485 14.259 89.6001 14.3977 89.6001 14.649C89.6001 14.7963 89.5438 14.909 89.4311 14.987C89.3271 15.0563 89.1668 15.0823 88.9501 15.065L88.5991 15.039C87.9058 14.987 87.3945 14.779 87.0651 14.415C86.7358 14.051 86.5711 13.5007 86.5711 12.764V9.501H85.7001C85.5528 9.501 85.4358 9.46633 85.3491 9.397C85.2711 9.319 85.2321 9.21933 85.2321 9.098C85.2321 8.968 85.2711 8.864 85.3491 8.786C85.4358 8.708 85.5528 8.669 85.7001 8.669H86.5711V7.2C86.5711 7.03533 86.6188 6.90967 86.7141 6.823C86.8095 6.72767 86.9395 6.68 87.1041 6.68C87.2601 6.68 87.3858 6.72767 87.4811 6.823C87.5765 6.90967 87.6241 7.03533 87.6241 7.2V8.669H89.0671C89.2058 8.669 89.3141 8.708 89.3921 8.786C89.4788 8.864 89.5221 8.968 89.5221 9.098C89.5221 9.21933 89.4788 9.319 89.3921 9.397C89.3141 9.46633 89.2058 9.501 89.0671 9.501H87.6241V12.816C87.6241 13.2927 87.7195 13.6393 87.9101 13.856C88.1095 14.064 88.4041 14.181 88.7941 14.207L89.1451 14.233ZM93.2251 8.513C94.8111 8.513 95.6041 9.345 95.6041 11.009V14.545C95.6041 14.701 95.5564 14.8267 95.4611 14.922C95.3744 15.0173 95.2531 15.065 95.0971 15.065C94.9411 15.065 94.8154 15.0173 94.7201 14.922C94.6248 14.8267 94.5771 14.701 94.5771 14.545V13.921C94.4124 14.2937 94.1611 14.584 93.8231 14.792C93.4851 14.9913 93.0951 15.091 92.6531 15.091C92.2458 15.091 91.8688 15.0087 91.5221 14.844C91.1841 14.6793 90.9154 14.4497 90.7161 14.155C90.5168 13.8603 90.4171 13.5353 90.4171 13.18C90.4171 12.7033 90.5384 12.335 90.7811 12.075C91.0238 11.8063 91.4224 11.6157 91.9771 11.503C92.5318 11.3817 93.3031 11.321 94.2911 11.321H94.5771V10.892C94.5771 10.372 94.4688 9.99067 94.2521 9.748C94.0441 9.50533 93.7018 9.384 93.2251 9.384C92.6358 9.384 92.0378 9.54433 91.4311 9.865C91.1971 10.0123 91.0324 10.086 90.9371 10.086C90.8331 10.086 90.7464 10.047 90.6771 9.969C90.6078 9.891 90.5731 9.79133 90.5731 9.67C90.5731 9.54867 90.6078 9.44467 90.6771 9.358C90.7551 9.26267 90.8764 9.16733 91.0411 9.072C91.3444 8.89867 91.6868 8.76433 92.0681 8.669C92.4581 8.565 92.8438 8.513 93.2251 8.513ZM92.7961 14.259C93.3161 14.259 93.7408 14.0857 94.0701 13.739C94.4081 13.3837 94.5771 12.9287 94.5771 12.374V11.997H94.3431C93.5804 11.997 92.9998 12.0317 92.6011 12.101C92.2024 12.1617 91.9164 12.27 91.7431 12.426C91.5784 12.5733 91.4961 12.7943 91.4961 13.089C91.4961 13.427 91.6174 13.7087 91.8601 13.934C92.1114 14.1507 92.4234 14.259 92.7961 14.259Z" fill="#7A7A7A"/>
<g clip-path="url(#clip0)">
<path d="M8.87173 8.67069C10.0629 8.67069 11.0943 8.24346 11.9372 7.40053C12.7798 6.55774 13.2072 5.52654 13.2072 4.33521C13.2072 3.14429 12.78 2.11295 11.9371 1.26988C11.0941 0.427231 10.0628 0 8.87173 0C7.6804 0 6.6492 0.427231 5.80641 1.27002C4.96362 2.11281 4.53625 3.14415 4.53625 4.33521C4.53625 5.52654 4.96362 6.55788 5.80641 7.40067C6.64948 8.24332 7.68082 8.67069 8.87173 8.67069ZM6.55238 2.01585C7.19907 1.36917 7.95767 1.05483 8.87173 1.05483C9.78566 1.05483 10.5444 1.36917 11.1912 2.01585C11.8379 2.66267 12.1524 3.42142 12.1524 4.33521C12.1524 5.24927 11.8379 6.00787 11.1912 6.6547C10.5444 7.30152 9.78566 7.61586 8.87173 7.61586C7.95795 7.61586 7.19934 7.30138 6.55238 6.6547C5.90556 6.00801 5.59108 5.24927 5.59108 4.33521C5.59108 3.42142 5.90556 2.66267 6.55238 2.01585Z" fill="black"/>
<path d="M16.4577 13.8412C16.4334 13.4904 16.3842 13.1078 16.3118 12.7038C16.2388 12.2968 16.1447 11.912 16.0321 11.5603C15.9156 11.1968 15.7576 10.8378 15.5619 10.4938C15.359 10.1367 15.1206 9.82581 14.8531 9.56996C14.5734 9.30231 14.2309 9.08711 13.8348 8.93015C13.4401 8.774 13.0027 8.6949 12.5349 8.6949C12.3511 8.6949 12.1734 8.77029 11.8302 8.99373C11.619 9.13147 11.372 9.29077 11.0962 9.46697C10.8604 9.6172 10.541 9.75797 10.1464 9.88541C9.76149 10.01 9.37065 10.0731 8.98476 10.0731C8.59914 10.0731 8.2083 10.01 7.82309 9.88541C7.42896 9.7581 7.10939 9.61734 6.87401 9.4671C6.60086 9.29256 6.35367 9.13326 6.1393 8.99359C5.79639 8.77016 5.61868 8.69476 5.43494 8.69476C4.96692 8.69476 4.52966 8.774 4.13512 8.93028C3.73933 9.08698 3.3967 9.30217 3.11668 9.5701C2.84917 9.82608 2.61076 10.1369 2.40807 10.4938C2.21265 10.8378 2.05444 11.1966 1.93799 11.5604C1.82552 11.9121 1.73145 12.2968 1.65839 12.7038C1.58588 13.1073 1.53685 13.49 1.51254 13.8416C1.48865 14.1853 1.47656 14.5431 1.47656 14.9045C1.47656 15.8441 1.77525 16.6048 2.36426 17.1658C2.94598 17.7194 3.71558 18.0001 4.65175 18.0001H13.3189C14.2548 18.0001 15.0244 17.7194 15.6062 17.1658C16.1954 16.6052 16.4941 15.8443 16.4941 14.9044C16.4939 14.5417 16.4817 14.1839 16.4577 13.8412ZM14.8789 16.4015C14.4945 16.7674 13.9842 16.9452 13.3187 16.9452H4.65175C3.98611 16.9452 3.4758 16.7674 3.09155 16.4017C2.71458 16.0428 2.53139 15.553 2.53139 14.9045C2.53139 14.5672 2.54251 14.2342 2.56476 13.9145C2.58646 13.6009 2.63081 13.2563 2.69659 12.8902C2.76155 12.5286 2.84422 12.1892 2.94255 11.882C3.0369 11.5875 3.16557 11.2958 3.32515 11.0148C3.47745 10.747 3.65268 10.5173 3.84604 10.3321C4.0269 10.159 4.25487 10.0172 4.52348 9.91095C4.77191 9.81262 5.0511 9.75879 5.35419 9.75069C5.39113 9.77033 5.45691 9.80782 5.56348 9.87731C5.78032 10.0186 6.03026 10.1798 6.30657 10.3563C6.61803 10.5549 7.0193 10.7342 7.49872 10.889C7.98885 11.0475 8.48873 11.128 8.9849 11.128C9.48107 11.128 9.98108 11.0475 10.4709 10.8891C10.9508 10.7341 11.3519 10.5549 11.6638 10.356C11.9465 10.1753 12.1895 10.0188 12.4063 9.87731C12.5129 9.80795 12.5787 9.77033 12.6156 9.75069C12.9188 9.75879 13.198 9.81262 13.4466 9.91095C13.7151 10.0172 13.943 10.1591 14.1239 10.3321C14.3172 10.5171 14.4925 10.7469 14.6448 11.0149C14.8045 11.2958 14.9333 11.5876 15.0275 11.8819C15.126 12.1895 15.2088 12.5287 15.2736 12.89C15.3393 13.2568 15.3837 13.6015 15.4054 13.9146V13.9149C15.4278 14.2334 15.4391 14.5663 15.4392 14.9045C15.4391 15.5531 15.2559 16.0428 14.8789 16.4015Z" fill="black"/>
</g>
<defs>
<clipPath id="clip0">
<rect width="18" height="18" fill="white"/>
</clipPath>
</defs>
</svg>
